<mxfile host="app.diagrams.net" agent="Mozilla/5.0 (Windows NT 10.0; Win64; x64) AppleWebKit/537.36 (KHTML, like Gecko) Chrome/137.0.0.0 Safari/537.36" version="27.1.4">
  <diagram name="หน้า-1" id="HLbuw1RBrqAs6YHIYQfq">
    <mxGraphModel dx="2084" dy="1340" grid="1" gridSize="10" guides="1" tooltips="1" connect="1" arrows="1" fold="1" page="1" pageScale="1" pageWidth="850" pageHeight="1100" math="0" shadow="0">
      <root>
        <mxCell id="0" />
        <mxCell id="1" parent="0" />
        <mxCell id="eXx4Q-RtnBKRzLkyKdS7-2" value="Start" style="strokeWidth=2;html=1;shape=mxgraph.flowchart.terminator;whiteSpace=wrap;" vertex="1" parent="1">
          <mxGeometry x="355" y="30" width="140" height="60" as="geometry" />
        </mxCell>
        <mxCell id="eXx4Q-RtnBKRzLkyKdS7-12" style="edgeStyle=orthogonalEdgeStyle;rounded=0;orthogonalLoop=1;jettySize=auto;html=1;entryX=0.5;entryY=0;entryDx=0;entryDy=0;exitX=0.499;exitY=0.877;exitDx=0;exitDy=0;exitPerimeter=0;" edge="1" parent="1" source="eXx4Q-RtnBKRzLkyKdS7-3" target="eXx4Q-RtnBKRzLkyKdS7-5">
          <mxGeometry relative="1" as="geometry" />
        </mxCell>
        <mxCell id="eXx4Q-RtnBKRzLkyKdS7-3" value="&quot;Enter number product : &quot;" style="strokeWidth=2;html=1;shape=mxgraph.flowchart.document2;whiteSpace=wrap;size=0.25;" vertex="1" parent="1">
          <mxGeometry x="348" y="140" width="155" height="80" as="geometry" />
        </mxCell>
        <mxCell id="eXx4Q-RtnBKRzLkyKdS7-4" style="edgeStyle=orthogonalEdgeStyle;rounded=0;orthogonalLoop=1;jettySize=auto;html=1;exitX=0.5;exitY=1;exitDx=0;exitDy=0;exitPerimeter=0;entryX=0.5;entryY=0;entryDx=0;entryDy=0;entryPerimeter=0;" edge="1" parent="1" source="eXx4Q-RtnBKRzLkyKdS7-2" target="eXx4Q-RtnBKRzLkyKdS7-3">
          <mxGeometry relative="1" as="geometry" />
        </mxCell>
        <mxCell id="eXx4Q-RtnBKRzLkyKdS7-5" value="INPUT : qty" style="shape=parallelogram;html=1;strokeWidth=2;perimeter=parallelogramPerimeter;whiteSpace=wrap;rounded=1;arcSize=12;size=0.23;" vertex="1" parent="1">
          <mxGeometry x="328" y="260" width="195" height="60" as="geometry" />
        </mxCell>
        <mxCell id="eXx4Q-RtnBKRzLkyKdS7-11" style="edgeStyle=orthogonalEdgeStyle;rounded=0;orthogonalLoop=1;jettySize=auto;html=1;entryX=0.5;entryY=0;entryDx=0;entryDy=0;exitX=0.499;exitY=0.83;exitDx=0;exitDy=0;exitPerimeter=0;" edge="1" parent="1" source="eXx4Q-RtnBKRzLkyKdS7-8" target="eXx4Q-RtnBKRzLkyKdS7-9">
          <mxGeometry relative="1" as="geometry" />
        </mxCell>
        <mxCell id="eXx4Q-RtnBKRzLkyKdS7-8" value="&quot;Price per unit : &quot;" style="strokeWidth=2;html=1;shape=mxgraph.flowchart.document2;whiteSpace=wrap;size=0.25;" vertex="1" parent="1">
          <mxGeometry x="348" y="360" width="155" height="80" as="geometry" />
        </mxCell>
        <mxCell id="eXx4Q-RtnBKRzLkyKdS7-19" style="edgeStyle=orthogonalEdgeStyle;rounded=0;orthogonalLoop=1;jettySize=auto;html=1;entryX=0.5;entryY=0;entryDx=0;entryDy=0;" edge="1" parent="1" source="eXx4Q-RtnBKRzLkyKdS7-9" target="eXx4Q-RtnBKRzLkyKdS7-13">
          <mxGeometry relative="1" as="geometry" />
        </mxCell>
        <mxCell id="eXx4Q-RtnBKRzLkyKdS7-9" value="INPUT : price" style="shape=parallelogram;html=1;strokeWidth=2;perimeter=parallelogramPerimeter;whiteSpace=wrap;rounded=1;arcSize=12;size=0.23;" vertex="1" parent="1">
          <mxGeometry x="328" y="480" width="195" height="60" as="geometry" />
        </mxCell>
        <mxCell id="eXx4Q-RtnBKRzLkyKdS7-10" style="edgeStyle=orthogonalEdgeStyle;rounded=0;orthogonalLoop=1;jettySize=auto;html=1;entryX=0.5;entryY=0;entryDx=0;entryDy=0;entryPerimeter=0;" edge="1" parent="1" source="eXx4Q-RtnBKRzLkyKdS7-5" target="eXx4Q-RtnBKRzLkyKdS7-8">
          <mxGeometry relative="1" as="geometry" />
        </mxCell>
        <mxCell id="eXx4Q-RtnBKRzLkyKdS7-13" value="total = qty * price" style="rounded=1;whiteSpace=wrap;html=1;absoluteArcSize=1;arcSize=14;strokeWidth=2;" vertex="1" parent="1">
          <mxGeometry x="295.5" y="580" width="260" height="60" as="geometry" />
        </mxCell>
        <mxCell id="eXx4Q-RtnBKRzLkyKdS7-14" value="&quot;Total Money : &quot;" style="strokeWidth=2;html=1;shape=mxgraph.flowchart.document2;whiteSpace=wrap;size=0.25;" vertex="1" parent="1">
          <mxGeometry x="348" y="680" width="155" height="80" as="geometry" />
        </mxCell>
        <mxCell id="eXx4Q-RtnBKRzLkyKdS7-22" style="edgeStyle=orthogonalEdgeStyle;rounded=0;orthogonalLoop=1;jettySize=auto;html=1;entryX=0.5;entryY=0;entryDx=0;entryDy=0;exitX=0.494;exitY=0.876;exitDx=0;exitDy=0;exitPerimeter=0;" edge="1" parent="1" source="eXx4Q-RtnBKRzLkyKdS7-15" target="eXx4Q-RtnBKRzLkyKdS7-16">
          <mxGeometry relative="1" as="geometry" />
        </mxCell>
        <mxCell id="eXx4Q-RtnBKRzLkyKdS7-15" value="&quot;Enter pay money : &quot;" style="strokeWidth=2;html=1;shape=mxgraph.flowchart.document2;whiteSpace=wrap;size=0.25;" vertex="1" parent="1">
          <mxGeometry x="348" y="800" width="155" height="80" as="geometry" />
        </mxCell>
        <mxCell id="eXx4Q-RtnBKRzLkyKdS7-23" style="edgeStyle=orthogonalEdgeStyle;rounded=0;orthogonalLoop=1;jettySize=auto;html=1;entryX=0.5;entryY=0;entryDx=0;entryDy=0;" edge="1" parent="1" source="eXx4Q-RtnBKRzLkyKdS7-16" target="eXx4Q-RtnBKRzLkyKdS7-17">
          <mxGeometry relative="1" as="geometry" />
        </mxCell>
        <mxCell id="eXx4Q-RtnBKRzLkyKdS7-16" value="INPUT : pay" style="shape=parallelogram;html=1;strokeWidth=2;perimeter=parallelogramPerimeter;whiteSpace=wrap;rounded=1;arcSize=12;size=0.23;" vertex="1" parent="1">
          <mxGeometry x="328" y="910" width="195" height="60" as="geometry" />
        </mxCell>
        <mxCell id="eXx4Q-RtnBKRzLkyKdS7-17" value="change = pay - total" style="rounded=1;whiteSpace=wrap;html=1;absoluteArcSize=1;arcSize=14;strokeWidth=2;" vertex="1" parent="1">
          <mxGeometry x="295.5" y="1010" width="260" height="60" as="geometry" />
        </mxCell>
        <mxCell id="eXx4Q-RtnBKRzLkyKdS7-18" value="&quot;Money change : &quot;" style="strokeWidth=2;html=1;shape=mxgraph.flowchart.document2;whiteSpace=wrap;size=0.25;" vertex="1" parent="1">
          <mxGeometry x="348" y="1110" width="155" height="80" as="geometry" />
        </mxCell>
        <mxCell id="eXx4Q-RtnBKRzLkyKdS7-20" style="edgeStyle=orthogonalEdgeStyle;rounded=0;orthogonalLoop=1;jettySize=auto;html=1;entryX=0.5;entryY=0;entryDx=0;entryDy=0;entryPerimeter=0;" edge="1" parent="1" source="eXx4Q-RtnBKRzLkyKdS7-13" target="eXx4Q-RtnBKRzLkyKdS7-14">
          <mxGeometry relative="1" as="geometry" />
        </mxCell>
        <mxCell id="eXx4Q-RtnBKRzLkyKdS7-21" style="edgeStyle=orthogonalEdgeStyle;rounded=0;orthogonalLoop=1;jettySize=auto;html=1;entryX=0.5;entryY=0;entryDx=0;entryDy=0;entryPerimeter=0;exitX=0.498;exitY=0.887;exitDx=0;exitDy=0;exitPerimeter=0;" edge="1" parent="1" source="eXx4Q-RtnBKRzLkyKdS7-14" target="eXx4Q-RtnBKRzLkyKdS7-15">
          <mxGeometry relative="1" as="geometry" />
        </mxCell>
        <mxCell id="eXx4Q-RtnBKRzLkyKdS7-24" style="edgeStyle=orthogonalEdgeStyle;rounded=0;orthogonalLoop=1;jettySize=auto;html=1;entryX=0.5;entryY=0;entryDx=0;entryDy=0;entryPerimeter=0;" edge="1" parent="1" source="eXx4Q-RtnBKRzLkyKdS7-17" target="eXx4Q-RtnBKRzLkyKdS7-18">
          <mxGeometry relative="1" as="geometry" />
        </mxCell>
        <mxCell id="eXx4Q-RtnBKRzLkyKdS7-25" value="End" style="strokeWidth=2;html=1;shape=mxgraph.flowchart.terminator;whiteSpace=wrap;" vertex="1" parent="1">
          <mxGeometry x="355.5" y="1230" width="140" height="60" as="geometry" />
        </mxCell>
        <mxCell id="eXx4Q-RtnBKRzLkyKdS7-26" style="edgeStyle=orthogonalEdgeStyle;rounded=0;orthogonalLoop=1;jettySize=auto;html=1;entryX=0.5;entryY=0;entryDx=0;entryDy=0;entryPerimeter=0;exitX=0.502;exitY=0.882;exitDx=0;exitDy=0;exitPerimeter=0;" edge="1" parent="1" source="eXx4Q-RtnBKRzLkyKdS7-18" target="eXx4Q-RtnBKRzLkyKdS7-25">
          <mxGeometry relative="1" as="geometry" />
        </mxCell>
      </root>
    </mxGraphModel>
  </diagram>
</mxfile>
